<?xml version="1.0" standalone="no"?>
<!DOCTYPE svg PUBLIC "-//W3C//DTD SVG 20010904//EN"
 "http://www.w3.org/TR/2001/REC-SVG-20010904/DTD/svg10.dtd">
<svg version="1.0" xmlns="http://www.w3.org/2000/svg"
 width="300.000000pt" height="300.000000pt" viewBox="0 0 300.000000 300.000000"
 preserveAspectRatio="xMidYMid meet">
<metadata>
Created by potrace 1.10, written by Peter Selinger 2001-2011
</metadata>
<g transform="translate(0.000000,300.000000) scale(0.100000,-0.100000)"
fill="#000000" stroke="none">
<path d="M1378 2330 c-258 -47 -491 -215 -607 -439 -52 -101 -76 -178 -91
-291 -25 -189 24 -403 128 -559 111 -168 273 -285 479 -347 77 -24 105 -27
228 -27 123 0 151 3 230 27 299 90 508 307 586 606 30 117 30 292 0 405 -77
289 -306 523 -591 605 -83 24 -281 35 -362 20z m247 -36 c167 -18 322 -99 465
-243 79 -80 103 -112 143 -191 68 -135 88 -212 92 -350 5 -137 -5 -196 -50
-315 -131 -342 -473 -543 -842 -496 -439 57 -747 421 -719 850 7 120 26 194
76 297 55 114 137 215 234 286 132 98 225 138 381 162 80 12 106 12 220 0z"/>
<path d="M1161 1914 c-16 -21 -21 -41 -21 -91 0 -58 3 -68 29 -94 l29 -29 315
2 c310 3 316 3 339 25 34 32 39 140 8 183 l-21 30 -329 0 -329 0 -20 -26z
m679 -91 l0 -83 -330 0 -330 0 0 83 0 82 330 0 330 0 0 -82z"/>
<path d="M1189 1614 c-49 -14 -69 -157 -28 -208 l20 -26 325 0 325 0 24 26
c21 23 25 37 25 94 0 59 -3 69 -26 91 l-26 24 -311 2 c-172 0 -319 -1 -328 -3z
m651 -114 l0 -80 -330 0 -330 0 0 80 0 80 330 0 330 0 0 -80z"/>
<path d="M1166 1276 c-25 -24 -26 -29 -26 -159 0 -121 2 -137 21 -161 l20 -26
323 0 c385 0 366 -6 366 114 0 56 -4 77 -16 87 -13 10 -79 17 -248 24 l-231
10 -3 40 c-5 68 -28 87 -110 92 -66 5 -73 3 -96 -21z m164 -86 l0 -70 255 0
255 0 0 -80 0 -80 -330 0 -330 0 0 150 0 150 75 0 75 0 0 -70z"/>
</g>
</svg>
